<svg xmlns="http://www.w3.org/2000/svg" width="1em" height="1em" viewBox="0 0 512 512">
	<rect width="512" height="512" fill="none" />
	<path fill="gray" d="M488 348.78h-70.24l-15.1 87.44l-48.78-87.44H169v-50h190v-157h129zm-145-273v207H158.13l-48.79 87.47l-15.11-87.47H24v-207zM136.724 215.324c0-10.139-12.257-15.214-19.425-8.046s-2.093 19.426 8.046 19.426c6.285 0 11.38-5.095 11.38-11.38zm60.945 0c-.068-10.12-12.32-15.122-19.452-7.943c-7.131 7.18-2.047 19.399 8.073 19.399c6.314 0 11.422-5.141 11.38-11.456zm60.945 0c0-10.139-12.257-15.214-19.425-8.046s-2.093 19.426 8.046 19.426c6.284 0 11.38-5.095 11.38-11.38z" />
</svg>