<svg xmlns="http://www.w3.org/2000/svg" width="1em" height="1em" viewBox="0 0 24 24">
	<rect width="24" height="24" fill="none" />
	<path fill="white" d="M19 20.5q-.898 0-1.586-.562t-.855-1.438H11q-1.458 0-2.479-1.021T7.5 15t1.021-2.479T11 11.5h2q1.031 0 1.766-.735q.734-.736.734-1.769t-.734-1.764T13 6.5H7.44q-.17.875-.856 1.438T5 8.5q-1.042 0-1.77-.728q-.73-.729-.73-1.77t.73-1.771T5 3.5q.898 0 1.584.563q.685.562.857 1.437H13q1.458 0 2.479 1.021T16.5 9t-1.021 2.479T13 12.5h-2q-1.031 0-1.766.736q-.734.735-.734 1.768t.735 1.764q.734.732 1.765.732h5.56q.17-.875.856-1.437T19 15.5q1.042 0 1.77.729q.73.728.73 1.769t-.73 1.771T19 20.5M5 7.5q.617 0 1.059-.441Q6.5 6.617 6.5 6t-.441-1.059Q5.617 4.5 5 4.5t-1.059.441Q3.5 5.383 3.5 6t.441 1.059Q4.383 7.5 5 7.5" />
</svg>