<svg xmlns="http://www.w3.org/2000/svg" width="1em" height="1em" viewBox="0 0 100 100">
	<rect width="100" height="100" fill="none" />
	<path fill="white" fill-rule="evenodd" d="M65.809 5a2.5 2.5 0 0 0-1.03.232L34.166 19.453L3.553 5.233C1.896 4.462 0 5.672 0 7.5v70.29a2.5 2.5 0 0 0 1.447 2.267l31.666 14.71a2.5 2.5 0 0 0 2.108 0l30.613-14.22l30.613 14.22c1.657.77 3.553-.44 3.553-2.267V24.861l-5 4.221v59.5L67.322 75.725l-.154-27.067l-2.99 1.62l.144 25.456l-28.676 13.323l-.369-64.606l11.54-5.361c.471-7.134 8.642-6.835 13.97-7.293c4.106-.686 5.701-4.352 6.1-6.565A2.5 2.5 0 0 0 65.809 5M5 11.418l27.275 12.67l.371 64.95L5 76.192Z" color="white" />
	<path fill="white" d="M75.334 0a1.5 1.5 0 0 0-1.363.836l-6.814 13.809l-15.239 2.213a1.5 1.5 0 0 0-.83 2.558l11.026 10.748l-2.602 15.178a1.5 1.5 0 0 0 2.176 1.58l13.629-7.164l13.629 7.164a1.5 1.5 0 0 0 2.177-1.58L88.52 30.164l11.027-10.748a1.5 1.5 0 0 0-.832-2.558l-15.238-2.213L76.662.836A1.5 1.5 0 0 0 75.334 0" color="white" />
</svg>