<svg xmlns="http://www.w3.org/2000/svg" viewBox="0 0 200 200"
    id="Seo--Search-Engine-Optimization-2--Streamline-Milano">
    <desc>SEO Search Engine Optimization 2 Streamline Illustration: https://streamlinehq.com</desc>
    <g fill="#000000">
        <path
            d="M47.83 76.65c0.54 -0.27 0.39 -1.46 0.32 -2.08 -0.1 -0.44 -0.18 -1.11 -0.62 -1.33 -0.12 -0.07 -1.45 -0.18 -1.71 0.07 -0.12 0.1 -0.07 0.17 -0.25 0.49 -0.31 0.61 -1 0.67 0.28 1.79 0.74 0.67 1.48 1.31 1.98 1.06zM37.78 63.47a10 10 0 0 0 0.76 1.63c0.19 0.27 0.66 0.1 0.54 -0.24 -0.23 -0.63 -0.75 -1.46 -1.46 -3.16a0.22 0.22 0 1 0 -0.41 0.14c0.19 0.53 0.38 1.16 0.57 1.63zm8.14 -4.94c0 -0.14 -0.32 -0.19 -0.32 0.07a13 13 0 0 0 0.87 3.69c0.15 0.3 0.58 0.11 0.54 -0.21s-0.73 -2.55 -0.95 -3.14a2.49 2.49 0 0 1 -0.14 -0.41zm-8.99 0.62c0.09 -0.09 0 -0.27 -0.11 -0.24a2.94 2.94 0 0 0 -2.38 2.27c-0.11 0.41 0.54 0.58 0.61 0.17a3.53 3.53 0 0 1 1.88 -2.2zM46 57.17a0.33 0.33 0 0 0 0.38 -0.43c-0.12 -0.37 -1.17 -0.24 -1.55 -0.13a1.93 1.93 0 0 0 -1 0.72c-0.07 0.08 -0.12 0.15 -0.06 0.22s0.97 -0.74 2.23 -0.38zm61.85 15.95a2.23 2.23 0 0 0 2.15 2.57 2.48 2.48 0 0 0 2 -0.84 2.22 2.22 0 0 0 0.14 -2.49 2.65 2.65 0 0 0 -2.37 -1.13 2.39 2.39 0 0 0 -1.92 1.89zm1.78 -1.35a2 2 0 0 1 2 0.69 1.68 1.68 0 0 1 0 2.13 2.22 2.22 0 0 1 -2.06 0.61 1.89 1.89 0 0 1 -1.15 -1.76 2 2 0 0 1 1.21 -1.67zM100.69 66a0.22 0.22 0 0 0 0.29 0.2c5.39 0.22 11.13 0 16.52 -0.3 0.09 0 0.15 -0.12 0.17 -0.2a19.71 19.71 0 0 0 -0.62 -2.66c-3.98 -11.42 -16.98 -7.95 -16.36 2.96zm8.88 -1.65c0.63 -0.6 2.67 -2.63 3.86 -3.82a0.21 0.21 0 0 0 -0.07 -0.36c-0.18 -0.08 -0.13 0 -2.1 1.75 -0.93 0.84 -1.88 1.71 -2.25 2.06 -1.65 -0.63 -2.51 0.92 -1.67 1.84 -1.27 0 -5 0 -6.18 -0.07 -0.36 -10.94 13.43 -13.42 16 -0.34 -1.19 0.08 -6.3 0.34 -7.55 0.4a1.11 1.11 0 0 0 -0.04 -1.45z"
            stroke-width="1"></path>
        <path
            d="M105.59 58.58c0 -0.07 -0.17 0 -0.15 0.05 0.12 0.33 0.7 1.54 0.87 1.83a0.23 0.23 0 0 0 0.25 0.08 0.2 0.2 0 0 0 0.07 -0.25 14.45 14.45 0 0 1 -1.04 -1.71zm3.02 -0.58c0 -0.07 -0.17 -0.07 -0.17 0 0 0.52 -0.16 1 -0.15 1.54 0 0.18 0.28 0.28 0.35 0 0.05 -0.54 -0.05 -1.01 -0.03 -1.54zm2.68 0c-0.05 0.1 -0.62 1.24 -0.62 1.32a0.13 0.13 0 0 0 0.24 0.09s0.47 -1.26 0.52 -1.38 -0.09 -0.11 -0.14 -0.03zm-8.07 3.43c-0.13 -0.07 -0.25 0.12 -0.13 0.2a6.63 6.63 0 0 0 1.29 0.74c0.07 0 0.15 0 0.17 -0.07 0.15 -0.3 -0.44 -0.3 -1.33 -0.87zm0.54 2.47c-0.12 0 -1.33 -0.09 -1.58 -0.12a0.08 0.08 0 0 0 0 0.15 8.31 8.31 0 0 0 1.61 0.32 0.18 0.18 0 0 0 -0.03 -0.35zm11.39 -0.17c-0.18 -0.17 -0.16 -0.51 -0.2 -0.72h0.44a0.15 0.15 0 0 0 0 -0.29c-0.59 -0.1 -0.49 0.08 -0.49 -0.3a0.1 0.1 0 0 0 -0.2 0 1.23 1.23 0 0 1 0 0.27h-0.18a0.18 0.18 0 0 0 0 0.35h0.18c0 0.32 0 0.79 0.27 1s0.72 0.08 0.57 -0.15 -0.21 0.03 -0.39 -0.16zm1.08 23.66c5.5 0.25 38.57 0.37 41.4 0a0.23 0.23 0 0 0 0.17 -0.37c-0.07 -0.11 -37.37 0.26 -41.56 0a0.16 0.16 0 1 0 -0.01 0.37zm3.07 -3.73c2.11 0 36.18 -0.38 39 -0.7a0.26 0.26 0 0 0 0 -0.52c-2.32 0 -35.38 0.84 -38.87 0.84 -0.14 0 -0.33 0 -0.33 0.19a0.18 0.18 0 0 0 0.2 0.19zm-8.54 13.76c4 0 50.26 -1.51 52 -1.76a0.23 0.23 0 0 0 0 -0.45c-1.69 0.13 -22.83 1.34 -51.92 1.88a0.17 0.17 0 1 0 -0.08 0.33zm0 -0.1zm-1.41 5.91c6.79 0.15 52.16 -0.09 56.41 -0.37 0.33 0 0.33 -0.53 0 -0.52 -7.77 0.17 -52.58 0.63 -56.41 0.52 -0.22 0 -0.23 0.37 0 0.37zm0.71 4.01a0.18 0.18 0 1 0 0 0.35c6.82 0.42 48.88 0.73 52.9 0.4a0.23 0.23 0 1 0 0 -0.45c-3.86 0.08 -49.2 -0.06 -52.9 -0.3zm64.82 4.09c0.35 0 0.34 -0.55 0 -0.52 -4 0.29 -61.09 0.57 -66 0.29a0.17 0.17 0 0 0 0 0.33c0.12 0 58.45 0.57 66 -0.1zm-48.01 59.84c-6.93 0.54 -32.07 1.41 -32 1.41a0.21 0.21 0 0 0 0 0.42c4.27 0.08 29.84 -1.06 32 -1.33 0.36 -0.04 0.32 -0.54 0 -0.5zm0.85 -7.8c-0.56 0 -33.32 1.51 -33.43 1.75s0 0.32 0.17 0.29c7.55 -0.39 33.3 -1.38 33.48 -1.68a0.24 0.24 0 0 0 -0.22 -0.36zM91.81 159c4.86 -0.29 31.87 -1.88 34.39 -2.15a0.29 0.29 0 0 0 0.2 -0.45c-0.1 -0.14 1.86 -0.34 -32.19 2 -2.56 0.17 -2.6 0.11 -2.6 0.36a0.19 0.19 0 0 0 0.2 0.24zm77.56 10.27c-2.06 0.12 -30 2.19 -32.4 2.22a0.2 0.2 0 0 0 0 0.4c4.43 0 30.22 -1.72 32.46 -2.1 0.3 -0.05 0.24 -0.52 -0.06 -0.52zm2.39 -8.39c-2.11 0.22 -32.68 2.05 -35.33 2.05a0.19 0.19 0 0 0 -0.19 0.2c0 0.23 0.22 0.2 0.43 0.2 5.34 0 32.8 -1.51 35.18 -1.86a0.3 0.3 0 0 0 -0.09 -0.59zm2.11 -4.71c-5.06 0.44 -34.74 1.09 -37.31 1a0.18 0.18 0 0 0 -0.18 0.19c0 0.23 0 0.22 3 0.22 8.89 0 32.11 -0.59 34.53 -0.85 0.35 -0.04 0.34 -0.58 -0.04 -0.56zm-42.96 -40.02c-0.12 0 -0.25 0.21 -0.25 0.28 1 14.45 2.06 35.09 2.41 35.09 0.61 0 -0.95 -0.16 23.51 -0.11 19 0 19 0 19.12 -0.18s0.08 1.12 0.05 -18.28c0 -18.19 0.16 -18.43 -0.29 -18.43 -0.05 0 -42.65 1.6 -44.55 1.63zm44.3 34.63c-3.35 0.1 -38.24 0 -41.83 0.19 -0.14 -2.89 -2 -31.72 -2.21 -34.32 6.06 -0.07 41.37 -1.43 44 -1.63 -0.11 5.25 -0.1 32.78 0.04 35.76z"
            stroke-width="1"></path>
        <path
            d="M166.11 133.15a9.27 9.27 0 0 0 -10 -3.3c-0.7 -1.09 -6.6 -9.43 -6.66 -9.53a0.3 0.3 0 0 0 -0.24 -0.12c-0.55 0 -7.8 17.87 -8.95 20.15a0.3 0.3 0 0 0 0.2 0.55c4.61 0.06 7.45 0.08 8.45 0 1.33 6.63 10 7.67 15 3.68 3.75 -2.91 4.18 -8.71 2.2 -11.43zm-16.71 4.94c0.63 -5.76 6.27 -8.72 11 -7.86a8.68 8.68 0 0 1 5.84 4.23c1 2.12 0.47 6.33 -1.77 8.83 -4.78 5.38 -16.05 3.88 -15.07 -5.2zm-8.6 2.22c2.53 -4.88 7.62 -17.91 8.38 -19.37 2.79 4 5.94 8.46 6.4 9.06a9.28 9.28 0 0 0 -6.74 10.52c-1.53 -0.16 -6.43 -0.19 -8.04 -0.21zM106.46 32.1c-0.89 2.5 0.32 4.83 2.38 8.71 1.46 2.75 2.64 5 3.93 4.85s2 -2.77 2.75 -5.74c1.09 -4.3 1.8 -7.18 0.15 -9.4a5.5 5.5 0 0 0 -4.85 -2.21 5.73 5.73 0 0 0 -4.36 3.79zm4.48 -0.32a2.61 2.61 0 0 1 3 2 2.55 2.55 0 1 1 -3 -2zM84.32 45.86c3.33 0.4 6.71 -2 8.15 -4.83a7 7 0 0 0 -1.26 -8.34c-2.06 -1.84 -6.3 -2.36 -8.87 -1.38 -3.07 1.17 -4.22 4.89 -4.27 7.72a6.14 6.14 0 0 0 1.69 4.58 8 8 0 0 0 4.56 2.25zM79.4 35.33c1.08 -2.87 2.93 -4 6 -4 2.53 0 4.92 0.72 6.31 2.81a6.83 6.83 0 0 1 0.71 5.76 8.32 8.32 0 0 1 -6.87 5.38c-2.82 0.21 -6.5 -1.9 -6.82 -5.38a10 10 0 0 1 0.67 -4.57z"
            stroke-width="1"></path>
        <path
            d="M85.63 40.31c0.4 0.19 2.46 -1.86 2.75 -2.19 0.2 -0.16 -0.07 -0.44 -0.27 -0.28 -0.45 0.35 -1.94 1.61 -2.26 1.85 -0.22 -0.39 -1.19 -2.31 -2.49 -5.32 -0.1 -0.25 -0.46 -0.08 -0.36 0.17 2.51 5.83 2.36 5.64 2.63 5.77zM98.54 16A2.37 2.37 0 0 0 97 13.52c-1.93 -0.8 -4.25 1.48 -3.75 3.36 0.65 2.36 4.75 1.92 5.29 -0.88zm-4.26 -1.14c1.81 -2.14 4 -0.43 3.74 1 -0.4 2.13 -3.37 2.79 -4.19 1.14a2.07 2.07 0 0 1 0.45 -2.11zm62.19 9.82 2.07 0.12c-0.11 0.63 -0.23 1.34 -0.33 2.06a0.35 0.35 0 0 0 0.51 0.37c0.19 -0.12 0.09 -0.16 0.51 -2.4 1.45 0.05 2.63 0.06 3.69 0 -0.11 0.58 -0.2 1.16 -0.29 1.72 -0.13 0.86 -0.19 1 -0.08 1.07a0.28 0.28 0 0 0 0.19 0.09c0.33 0 0.11 -0.32 0.72 -2.88 1.22 -0.05 2.49 -0.16 3.89 -0.35a0.31 0.31 0 0 0 0.2 -0.39c-0.08 -0.4 -0.06 -0.23 -3.94 0.08 0.24 -1 0.51 -2 0.84 -3.12 0.47 -0.1 2.64 -0.64 3.51 -0.87a0.2 0.2 0 0 0 0.15 -0.23c-0.07 -0.37 -0.27 0 -3.47 0.48 0.2 -0.7 0.42 -1.38 0.65 -2.16 0.11 -0.37 -0.45 -0.5 -0.56 -0.16 -0.29 0.72 -0.55 1.5 -0.83 2.45 -0.61 0.1 -3 0.4 -3.93 0.47 0.82 -3.65 1.09 -3.68 0.72 -3.79a0.24 0.24 0 0 0 -0.3 0.16 72.73 72.73 0 0 0 -1 3.7c-0.85 0 -1.73 0.09 -2.59 0.09a0.3 0.3 0 0 0 0 0.6c0.81 0 1.62 0 2.44 -0.07 -0.24 1 -0.43 1.87 -0.59 2.64 -0.72 0 -1.44 0 -2.15 -0.08a0.19 0.19 0 0 0 -0.03 0.4zm2.85 -0.3c0.16 -0.87 0.33 -1.71 0.53 -2.71 0.87 -0.07 3.14 -0.36 3.89 -0.46a29.54 29.54 0 0 0 -0.71 3c-1.24 0.12 -2.48 0.16 -3.71 0.17zM137.48 37.9a0.26 0.26 0 0 0 0.52 0.1l1.86 -2.08c1.26 0.85 5.94 3.92 6.18 4.11s0.57 0.45 0.88 0.33a23 23 0 0 0 1.88 -2.22 0.27 0.27 0 0 0 -0.08 -0.4 52.53 52.53 0 0 1 -6.41 -4.76c0.27 -0.33 1.11 -1.43 1.43 -1.86s0.48 -0.93 0 -1.19c-0.06 0 -0.47 -0.08 -1.73 -0.25 -4 -0.54 -5.48 -0.83 -6 -0.95s-0.56 0.14 -0.5 0.27c0.57 3.15 1.22 6 1.97 8.9zm6 -7.48c0 0.1 -0.2 0.38 -0.28 0.48 -0.29 0.38 -4.25 5.2 -5.29 6.44 -0.78 -2.9 -1.39 -5.53 -1.88 -8 2.78 0.73 7.35 0.92 7.41 1.08zm4.7 7.57a21.07 21.07 0 0 1 -1.51 1.77c-0.46 -0.28 -5 -3.23 -6.51 -4.24 0.65 -0.74 1.27 -1.48 1.84 -2.19a66.06 66.06 0 0 0 6.14 4.67zm-10.69 -13.23c0.62 0 0 -1.16 0.55 -6.53 0.05 -0.28 -0.4 -0.31 -0.44 0a28.32 28.32 0 0 0 -0.4 6.29 0.28 0.28 0 0 0 0.29 0.24zm-4.67 -0.16c0.34 0.73 0.36 0.88 0.58 0.88a0.34 0.34 0 0 0 0.3 -0.48c-0.63 -1.31 -1.39 -2.59 -2.11 -3.79a0.2 0.2 0 1 0 -0.34 0.2c0.59 1.03 1.07 2.14 1.57 3.19zm-5.06 7.02c0.17 0 0.47 -0.31 4.86 -1.77a0.3 0.3 0 0 0 -0.15 -0.59 25.14 25.14 0 0 0 -4.82 1.93 0.23 0.23 0 0 0 0.11 0.43zm38.88 4.98c-2.26 3.39 0.8 8.53 5.65 8.53a4.49 4.49 0 0 0 4.35 -3c0.41 -0.89 1.54 -3.93 -0.95 -6.25 0.44 -0.7 2.46 -3.75 3.22 -4.7 0.18 -0.22 -0.15 -0.53 -0.33 -0.3a40.81 40.81 0 0 0 -3.31 4.57 5.8 5.8 0 0 0 -8.63 1.15zm5.8 4.39a12.88 12.88 0 0 1 -2.24 -2.54 0.26 0.26 0 0 0 -0.44 0.26 8.75 8.75 0 0 0 2 2.58c0.41 0.35 0.83 0.38 1.12 0.09s1.84 -3.74 2.62 -5.13c2.12 2.22 1.31 6.54 -1.2 7.92 -2 1.09 -4.65 0.12 -6.17 -1.35a4.86 4.86 0 0 1 -1.24 -5.43 5.26 5.26 0 0 1 8.11 -1.53c-0.53 0.97 -2.3 4.75 -2.56 5.14zm20.25 33.52c-0.23 -1.82 -3 -3.21 -4.38 -1.56a2.32 2.32 0 0 0 2 3.8 2.19 2.19 0 0 0 2.38 -2.24zm-0.57 0a1.94 1.94 0 0 1 -3.53 0.85 1.66 1.66 0 0 1 1.4 -2.62c1.07 0 2.2 1.07 2.13 1.77z"
            stroke-width="1"></path>
        <path d="M106.04 6.24a1.36 1.36 0 1 0 2.72 0 1.36 1.36 0 1 0 -2.72 0" stroke-width="1"></path>
        <path
            d="M184.42 57.05c-0.46 -4.78 -1.77 -6.68 -8.82 -6.39 -4.49 0.19 -74.25 0.63 -89.39 1.38 -6.7 0.34 -5.93 1.76 -6.08 23.51a16.33 16.33 0 0 0 -6.46 0c-7.36 1.21 -15.39 3.51 -21.61 7.74A4.66 4.66 0 0 0 50 81.63c-0.66 -1.82 -1.48 -1.84 -2.53 -0.5a5.17 5.17 0 0 1 -0.79 -1.79c1.45 -0.59 2.61 -2 3.53 -4.21a15 15 0 0 0 1 -6 19.18 19.18 0 0 0 -0.65 -4.29c-0.31 -2.25 -2.2 -6 -4.51 -11.24 2 -1.65 2.39 -4 1.29 -6.9a0.26 0.26 0 0 0 -0.45 0c-0.67 1.05 -3.26 1.17 -4.3 0.79 -2.14 -0.78 -4.82 -5.08 -13 -6a16.92 16.92 0 0 0 -8.14 1.23A10.07 10.07 0 0 0 15 49.81a2.65 2.65 0 0 1 -1 -1.78 0.25 0.25 0 0 0 -0.5 0 6.28 6.28 0 0 0 0.57 2.83 11 11 0 0 0 -4.43 0 0.24 0.24 0 0 0 -0.17 0.26c0 0.28 0.37 0.24 0.69 0.26 0.89 0.07 2.31 0.17 2.8 0.81a8.76 8.76 0 0 0 -5 4.45c-1.17 2.58 -0.87 5.67 0.88 9.18 2.34 4.69 8.13 8.48 12.31 9.08a85.68 85.68 0 0 1 4 10.46 1.06 1.06 0 0 0 -1 0.94c-0.31 1.84 0.39 6.34 0.32 8.41a2.47 2.47 0 0 0 1.11 2.43C7.74 113 4.35 139 17 159.69a36.48 36.48 0 0 0 7.64 9.18c0.15 1.91 1.81 23.55 1.95 24.4a0.36 0.36 0 0 0 0.72 -0.07c0 -0.57 0 -1.19 -0.09 -1.9a86.93 86.93 0 0 0 57.22 -2.17 16.55 16.55 0 0 0 2.51 1c4.1 1.34 4.62 1.29 31.28 1.29 25.32 0 59.91 -0.24 61.8 -0.56 3.16 -0.54 3.64 -1.43 3.9 -3.39 0.58 -5.47 0.58 -129.47 0.49 -130.42zm-84 23.32c-0.12 -0.32 0.51 -7.75 0.85 -8.21a30 30 0 0 1 4 -3.06c-0.48 1.67 -1.71 7.05 -1.79 7.7a26 26 0 0 0 3 3.85 23.07 23.07 0 0 0 4.58 1 44 44 0 0 0 4.08 -3c0.3 -1.15 1.16 -5.36 1.49 -6.91 0.34 0.43 1.67 2 1.67 2.51 0 0.3 -1.27 6.64 -1.29 6.74 -0.15 0.73 0.15 0.48 -4.48 3 -2.67 1.48 -2.67 1.48 -2.66 1.56 -0.92 5.47 -3.53 19 -4.2 22.08a12.91 12.91 0 0 0 -5.7 -0.8c0.62 -3.18 3.82 -21.74 4.1 -23.3 0.06 -0.07 -3.45 -2.9 -3.63 -3.16zm3.83 27.81c0.79 0.2 1.51 0.43 1.63 1.08a1.53 1.53 0 0 1 -0.91 1.57 5 5 0 0 1 -2.78 0.2c-0.52 -0.06 -0.55 0.77 -0.07 0.77a7.71 7.71 0 0 0 2.6 0 2.2 2.2 0 0 1 0.91 0.72 0.82 0.82 0 0 1 -0.08 1 2.44 2.44 0 0 1 -1.41 0.32c-1.36 0 -1.61 -0.5 -1.93 -0.27a0.39 0.39 0 0 0 0.08 0.68 4.6 4.6 0 0 0 2.2 0.31 2.27 2.27 0 0 1 -1.18 1.54 5.25 5.25 0 0 1 -3.21 0.09c-0.89 -0.17 -1.34 -0.33 -1.92 0.34a13.29 13.29 0 0 0 -2.48 4.24 26.9 26.9 0 0 0 -6.12 -6.38 12.07 12.07 0 0 0 5.05 -4 5.42 5.42 0 0 1 4.15 -2.46 13.47 13.47 0 0 1 5.49 0.25zM43.9 127.29v-2.2l1.24 -0.21c0.16 1 0.13 1.66 0.21 2.74 0 0.6 0.3 0.19 0.3 0a23.59 23.59 0 0 0 -0.08 -2.83 2.54 2.54 0 0 1 1.1 -0.06c0.15 0.81 0.13 1.7 0.21 2.79 0 0.66 0.3 0.31 0.3 0 0 -2 0 -2.18 -0.07 -2.74h1.39c0.15 0.82 0.13 1.72 0.22 2.83 0 0.53 0.26 0.26 0.27 0a17.37 17.37 0 0 0 -0.07 -2.83c0.4 0 0.79 -0.08 1.19 -0.13 0.28 0.81 0.36 1.67 0.62 2.68 0.15 0.58 0.36 0.44 0.28 -0.08a20.54 20.54 0 0 0 -0.46 -2.65l1 -0.15c0.59 1 0.8 1.83 1.09 2.35 0.41 0.93 0.64 0.8 0.35 -0.14 0 -0.1 -0.68 -1.75 -1 -2.31l1.24 -0.17a25.89 25.89 0 0 1 1.22 2.69c0.12 0.27 0.43 0.28 0.25 -0.26a20.66 20.66 0 0 0 -1 -2.5c0.42 0 0.87 -0.1 1.29 -0.18a19.78 19.78 0 0 1 1.32 2.78 0.13 0.13 0 0 0 0.26 -0.06 19.36 19.36 0 0 0 -1.13 -2.81 10.09 10.09 0 0 0 1.18 -0.28 21.65 21.65 0 0 1 1.34 2.81c0.06 0.13 0.26 0 0.23 0A15.9 15.9 0 0 0 57 123.4a5.1 5.1 0 0 0 0.92 -0.42 19.57 19.57 0 0 1 1.27 2.67c0.17 0.35 0.3 0.18 0.22 -0.07a12.86 12.86 0 0 0 -1.12 -2.77c0.19 -0.19 0.18 0.3 -0.91 -1.75 14.17 -6.5 21.68 -18.63 22.11 -32.71 0.94 0.86 0.47 -3 0.4 31.73a52.17 52.17 0 0 1 -31.55 12.23 90.2 90.2 0 0 0 -7.34 -6.85c0.64 -0.06 1.49 -0.16 2.52 -0.31a14.56 14.56 0 0 1 0 2.19c-0.06 0.36 0.38 0.75 0.38 -0.05zm27.89 1.34c-5.08 4.22 -13.53 11 -15.84 12.76 -1 -1.32 -4.33 -5.35 -5.43 -6.65 3.68 0.07 11.8 -0.54 21.27 -6.11zm-16.21 13.62a28 28 0 0 1 1.2 4.26c0.84 3.57 1.42 5.32 2.39 9.34 0.86 3.61 2.3 9.62 5.17 19.13a64.68 64.68 0 0 1 -11.58 2.11c-7.82 0.48 -15.39 -1.38 -20 -3.84a77.16 77.16 0 0 1 20 -34.57c0.96 1.15 1.94 2.47 2.82 3.57zm1.89 -0.92c2.16 -1.66 4.68 -3.6 7.22 -5.65 6.7 5.17 10.87 12.09 17.46 21.15 -3.73 6.66 -8.33 13.9 -15.24 17.25 -3.63 -15.69 -5.75 -24.8 -9.44 -32.75zm9.53 -7.54c1.94 -1.6 3.92 -3.25 7 -5.9a49.35 49.35 0 0 1 15.42 13.49c-2 4.77 -3.74 8.67 -5.53 12.21 -9.7 -11.66 -10.08 -15.76 -16.89 -19.8zm22 10.78c2.31 -5.49 4.32 -11 6 -15.78 0.55 -0.29 1.66 -0.8 2 -0.95 0.53 0.16 2.29 0.47 3.11 0.64 -1.38 3.66 -5.59 12.74 -6.15 13.81 0 0.11 0 0.49 0.26 0.49 0.63 0 6.88 0.13 8.56 0 2 9.26 18.45 7.51 18.3 -4 -0.07 -4.67 -4.85 -8.69 -11.2 -7.14 -0.42 -0.74 -5.36 -7.73 -6.34 -9.08 0.21 -1.2 0.45 -2.61 0.68 -3.9 4.35 -0.16 18 -0.6 19.88 -0.76 0.12 3.59 1 30 1.18 32.94 -3.13 0.17 -33.08 2 -36.24 2.1a69.2 69.2 0 0 1 -0.04 -8.37zm7.21 -23a11.21 11.21 0 0 1 2.65 -4.57c0.38 -0.37 1.11 0.19 2.82 0.27a3.88 3.88 0 0 0 2.51 -0.67c-0.81 4.1 -1.75 9.34 -1.52 9.33a38.07 38.07 0 0 1 3.15 3c0 0.33 -1.06 6.71 -1.24 7.18 -0.1 0.32 -0.16 0.26 -2.58 1.49 0.48 -2.26 1 -4.6 1.46 -6.86a21.11 21.11 0 0 0 -2.75 -2.59s-3.28 -0.72 -3.56 -0.81a9.79 9.79 0 0 0 -1.87 0.73c0.13 -0.35 0 0.17 1.67 -4.78 0.05 -0.12 0.05 -0.21 -0.74 -1.74zm6.54 20.85c-1.58 -0.16 -6.8 -0.21 -8.15 -0.21 1.77 -3.38 5.46 -11.9 6.08 -13.41l2.2 1.91c-0.5 2 -0.91 4 -1.31 6 -0.24 1.23 -0.36 1.45 -0.14 1.6s0.07 0.12 1.76 -0.71a10.34 10.34 0 0 0 -0.44 4.8zm1 -5.09a6.24 6.24 0 0 0 0.93 -0.54 7.48 7.48 0 0 0 0.53 -1.86h0.07a10 10 0 0 1 10.26 -2.5 7.89 7.89 0 0 1 4.57 4.15 9 9 0 0 1 -0.39 6.36c-3 6.61 -13 6.78 -15.79 1.72a8.8 8.8 0 0 1 -0.14 -7.35zm1.64 -3.27a32.52 32.52 0 0 0 0.78 -5.47c0 -0.16 -0.42 -0.65 -3.11 -3 0 -0.13 0.29 -1.74 0.39 -2.3 1.9 2.76 5.37 7.69 6 8.54a11 11 0 0 0 -4.02 2.17zM96.18 123c0 0.11 -1 2.77 -2 5.76a75.16 75.16 0 0 0 -10.16 -10c5.06 -4.76 4.32 -4.49 4.65 -4.22a22.94 22.94 0 0 1 7.51 8.46zm-3.24 9.12c-0.7 1.91 -1.47 3.94 -2.4 6.35A57.43 57.43 0 0 0 76.11 126c1.83 -1.64 5.14 -4.68 5.91 -5.4a52.58 52.58 0 0 1 10.92 11.48zM72.67 76.57a17.59 17.59 0 0 1 7.45 -0.3c0 3.6 -0.05 7.54 -0.08 11.55 -3.92 -3.93 -9.27 -7.37 -14.8 -8.22 -0.47 -0.07 -0.64 0.66 -0.15 0.74A25.06 25.06 0 0 1 76.71 86c-0.19 12.77 -7 25.23 -20.84 32 -1.37 -3 -2.93 -6.87 -4.24 -10.24a21.91 21.91 0 0 0 5.59 -4.41c7.34 -8.2 4.93 -20.8 4.22 -23.79a75.5 75.5 0 0 1 11.23 -2.99zm-50.56 -1.64c2 0 3.89 -1.32 3.71 -2.19s-2.35 -0.28 -4 -1.58c-1.18 -0.93 -2 -2.91 -1.29 -4.09A2.21 2.21 0 0 1 23 66c1 0.28 2.78 2.78 2.93 3.13a0.38 0.38 0 0 0 0.27 0.17c0.24 0 0.38 -0.2 1 -1.68 0.09 -0.23 0.92 -2.48 1.07 -3a9.23 9.23 0 0 0 -1.76 -9.27c4.42 1 14.33 1.79 19 -1.36 1.68 3.91 3.38 6.86 4.42 11 -0.18 -0.15 -0.22 0 -0.23 0.1a5.18 5.18 0 0 1 -0.24 1.7 1.82 1.82 0 0 1 -1.54 1.11c-1 0 -1.55 -0.89 -2.84 -0.81 0.74 -0.95 1.29 -1.25 1.2 -1.74s-0.9 -0.74 -1.34 -1c-2 -1 -1.66 -2.44 -2.11 -2.33a0.17 0.17 0 0 0 -0.13 0.22A4.14 4.14 0 0 0 45 65c0.22 0.1 0.57 0.17 0.7 0.38s-0.24 0.46 -0.4 0.62a5.53 5.53 0 0 0 -1.19 1.61c-1.59 -0.32 -2.14 2.91 -2.8 3.72 -1.6 1.91 -3.88 0.92 -4 -1.2a0.1 0.1 0 0 0 -0.18 0C35.5 72.75 38.16 75 40.36 75c2.55 0 4.12 -2.74 4.24 -5.22a11.38 11.38 0 0 0 2.62 1.08c2.1 0.31 2.9 -0.77 3.24 -1.69a13.19 13.19 0 0 1 -2.09 7.64c-1.41 1.93 -2.42 1.62 -2.51 2A7.43 7.43 0 0 0 47 81.73a21.47 21.47 0 0 0 -1.76 3.56c1.63 0.42 2.08 0.52 2.05 0.62 -0.1 0.54 -14.87 0.79 -20.91 -0.47l-0.44 -0.08a77.31 77.31 0 0 0 -3.83 -10.43zm4.12 22.68c4.26 2.59 15.37 2.1 19.94 1.46a6.47 6.47 0 0 0 3.27 -1c1.78 -1.3 3.11 -5.47 3.39 -7.92 0.78 -7.24 -1.35 -5.34 0.41 -6.48a35.91 35.91 0 0 1 5.53 -3c0.76 3.27 2.38 13.06 -3.49 20.23a19.67 19.67 0 0 1 -4.69 4.1c-0.91 -2.44 -1.58 -4.32 -1.74 -4.92 -2.88 1.43 -11.92 2.37 -16.94 0.81 0.24 1.11 1.23 2.86 3.87 8.58 -0.85 0 -1.72 0 -2.59 -0.07a61.93 61.93 0 0 1 -14.33 -3.4 46.24 46.24 0 0 1 7.37 -8.39zM17 108.73a47.79 47.79 0 0 0 5.88 2.27c4.94 1.58 9 2.56 14.42 1.89 5 11.14 3.18 7.81 4.07 9.66 -1.79 0.29 -3.09 0.39 -3.66 0.43 -4.17 -3.16 -19.71 -12 -20.6 -10.87a0.35 0.35 0 0 0 0.24 0.55c1.43 0 12.49 6.06 14.64 7.38a32 32 0 0 0 -21.67 11.58A47.12 47.12 0 0 1 17 108.73zm-0.89 47.55a51.75 51.75 0 0 1 -5.71 -20.37 34.83 34.83 0 0 1 25.8 -13.17c2 1.46 3.84 3 5.73 4.65a77.92 77.92 0 0 0 -25.78 28.89zm2.07 3.6c7.32 -13.39 15.94 -22.81 26.34 -30.11 2.49 2.37 4.2 4.19 6.34 6.62a98.27 98.27 0 0 0 -21.81 34.72 36.92 36.92 0 0 1 -10.83 -11.23zm7.21 9.69c9.18 7.62 20.74 9.82 32.19 7.91 1.81 -0.3 3.62 -0.77 5.51 -1.24 3.43 -0.85 6.47 -1.8 11 -6.43a43.36 43.36 0 0 0 5.45 -6.88c0 2.76 0.06 7.33 0.15 11.35A78.64 78.64 0 0 1 26 176.85c-0.08 -1.16 -0.37 -4.85 -0.57 -7.28zm13.32 21.25a58.06 58.06 0 0 1 -11.82 -2.61c-0.08 -1 -0.49 -6.14 -0.63 -7.82a85.89 85.89 0 0 0 53.55 -2.6c0.1 3.23 0.07 6.6 2 9.18 -12.19 4.42 -26.69 5.72 -43.06 3.85zm144.71 -7.42a32.14 32.14 0 0 1 -0.32 4.51c-0.3 1.64 -1.82 2 -3.63 2.27 -3.31 0.5 -82.44 0.6 -86 0.37 -3 -0.21 -7.25 -0.94 -9.68 -2.68 -1.83 -1.31 -2.84 -3.5 -3.08 -6.69 -0.23 -3 -0.39 -15.8 -0.4 -19.42A115 115 0 0 0 88.4 146a51.13 51.13 0 0 0 0.14 7.24 0.3 0.3 0 0 0 0.23 0.25c0.1 0 36.8 -1.74 37 -2.26 0 -0.15 -1.06 -30.4 -1.13 -33.52 0 -0.4 0.7 -0.31 -20.27 0.46 0.15 -0.82 0.29 -1.58 0.41 -2.18a3.2 3.2 0 0 0 0.56 -1.5c1.41 -0.38 1.67 -2 0.18 -3 1.28 -0.79 1.74 -2.53 0.6 -3.44 1.27 -6 3.93 -20.37 4.21 -22.16 1.26 -0.63 6.19 -3.42 6.68 -3.8s0.4 -0.49 1.3 -5c0.1 0 45.9 0.12 48.32 -0.26a1.6 1.6 0 0 0 0.67 -0.23c0.83 -0.66 0.75 -8.39 -0.06 -9a1.53 1.53 0 0 0 -0.94 -0.24c-1.89 0 -49.34 1.39 -53.08 1.46a22.14 22.14 0 0 0 -4.8 -0.69 12.9 12.9 0 0 0 -2.22 1.61 52.94 52.94 0 0 0 -1 5.79 20.14 20.14 0 0 0 2.08 2.59 43.21 43.21 0 0 0 4.3 0.79c0 0.1 2.52 -1.76 2.67 -2.47 0 0 0.89 -4 0.84 -4.14a20.89 20.89 0 0 0 -1.28 -3c7.71 -0.09 40.23 -0.94 43 -1a68.35 68.35 0 0 1 0 8.34c-4 0 -35.07 0 -38.39 0.07 0.21 -1 0.38 -2 0.41 -2.23 0.19 -0.73 -2.06 -3.35 -2 -3.38a0.24 0.24 0 0 0 -0.22 0c-0.2 0 -0.12 0 -0.8 3.07 -0.38 1.75 -0.82 3.72 -1 4.49 -0.52 0.33 -3.61 2.56 -3.79 2.64a39.87 39.87 0 0 1 -4.41 -1.08c-0.23 -0.12 -2 -2.56 -2.61 -3.33 0.07 -0.29 0.28 -1.17 0.53 -2.26 1.47 -6.39 1.53 -6 1.31 -6.17a0.21 0.21 0 0 0 -0.24 0 33 33 0 0 0 -4.46 3.21 3 3 0 0 0 -0.62 1.54c-0.17 1.33 -0.54 5.3 -0.59 6 -0.09 1.77 -0.46 1.09 3.65 4.5 -1 5.8 -3.62 20.62 -4 23.32a6.69 6.69 0 0 0 -5.38 2.89c-1.4 1.69 -3.09 3.43 -5.26 3.93 -0.49 -0.29 -0.59 -0.26 -0.69 -0.16 -2.73 2.68 -5.24 5.06 -7.65 7.27 0 -5.92 0.16 -59.34 0.65 -63.59s1.5 -4.45 6.09 -4.63c11.08 -0.46 90.44 -1.36 91.57 -1.24 4.25 0.49 4.8 2.78 4.93 7.18 -0.06 0.19 -0.25 119.64 -0.38 124.72zM166.07 74.48a0.34 0.34 0 0 1 -0.37 0.56c-0.11 -0.07 -1.51 -1.13 -2.07 -1.59 -2.39 2.29 -6.09 -0.73 -3.76 -3.78 0.59 -0.79 1.63 -1.17 3.15 -0.45a2.34 2.34 0 0 1 1.32 1.3 2.77 2.77 0 0 1 -0.26 2.32c0.58 0.46 1.98 1.63 1.99 1.64zm-51.8 -2.78c0.36 1 0.34 0.62 0.17 1.47 -0.66 3.27 -0.58 3.34 -0.89 3.63s-1.79 1.28 -2.22 1.68c-0.7 -0.12 -3.06 -0.6 -3.7 -0.76a21.47 21.47 0 0 1 -2 -2.35c-0.07 -0.3 0.75 -4.05 1 -5.2a18.08 18.08 0 0 1 1.93 -1.42 22.48 22.48 0 0 1 4.65 0.67 9.07 9.07 0 0 1 1.06 2.28z"
            stroke-width="1"></path>
        <path
            d="M162.7 69.87c-1.06 -0.46 -1.78 -0.41 -2.42 0.56a1.9 1.9 0 0 0 0 2.28 2 2 0 0 0 3.51 -1c0.12 -1.06 -0.26 -1.37 -1.09 -1.84zm-45.94 1.22z"
            stroke-width="1"></path>
    </g>
</svg>