<svg xmlns="http://www.w3.org/2000/svg" width="1em" height="1em" viewBox="0 0 24 24">
	<rect width="24" height="24" fill="none" />
	<path fill="white" d="M14.143 15.962a.5.5 0 0 1-.244.68l-9.402 4.193c-1.495.667-3.047-.814-2.306-2.202l3.152-5.904c.245-.459.245-1 0-1.458L2.191 5.367c-.74-1.388.81-2.87 2.306-2.202l3.525 1.572a2 2 0 0 1 .974.932z" />
	<path fill="white" d="M15.533 15.39a.5.5 0 0 0 .651.233l4.823-2.15c1.323-.59 1.323-2.355 0-2.945L12.109 6.56a.5.5 0 0 0-.651.68z" opacity="0.5" />
</svg>